<?xml version="1.0" standalone="no"?>
<!DOCTYPE svg PUBLIC "-//W3C//DTD SVG 20010904//EN"
 "http://www.w3.org/TR/2001/REC-SVG-20010904/DTD/svg10.dtd">
<svg version="1.0" xmlns="http://www.w3.org/2000/svg"
 width="1024.000000pt" height="1024.000000pt" viewBox="0 0 1024.000000 1024.000000"
 preserveAspectRatio="xMidYMid meet">
<metadata>
Created by potrace 1.11, written by Peter Selinger 2001-2013
</metadata>
<g transform="translate(0.000000,1024.000000) scale(0.100000,-0.100000)"
fill="#000000" stroke="none">
<path d="M5760 9409 c-811 -80 -1617 -542 -2189 -1254 -355 -441 -581 -938
-658 -1445 -24 -160 -24 -466 0 -615 107 -651 417 -1052 1107 -1430 68 -38
295 -151 504 -252 801 -386 1031 -546 1175 -814 72 -135 86 -193 86 -364 0
-174 -17 -250 -86 -388 -59 -116 -110 -188 -203 -285 -284 -296 -773 -527
-1321 -623 -173 -30 -454 -37 -599 -14 -491 77 -715 363 -591 755 55 172 142
309 289 455 119 118 218 188 359 255 126 60 224 88 346 99 82 7 97 11 114 32
17 21 18 34 13 91 -3 37 -17 93 -31 123 -60 138 -218 319 -386 444 -163 122
-374 202 -488 185 -226 -33 -516 -274 -746 -619 -132 -197 -234 -442 -287
-687 -30 -142 -33 -478 -4 -608 22 -102 77 -263 116 -340 93 -183 277 -392
460 -522 199 -141 482 -261 740 -312 181 -36 294 -46 520 -46 896 0 1778 338
2359 904 364 356 599 784 668 1220 23 149 14 389 -20 519 -105 396 -392 711
-867 951 -169 86 -239 115 -575 243 -311 118 -458 179 -605 252 -444 221 -676
467 -762 808 -32 126 -32 382 1 533 75 355 268 737 547 1085 115 143 359 387
499 499 380 304 771 476 1085 479 120 1 197 -17 272 -65 193 -123 269 -434
176 -721 -63 -197 -189 -383 -511 -761 -436 -510 -563 -709 -638 -1003 -33
-130 -33 -294 2 -383 99 -257 422 -496 726 -535 47 -6 55 -4 78 19 20 20 25
35 25 78 0 85 28 231 66 350 73 225 184 441 420 816 74 116 194 308 268 425
285 452 411 731 451 997 19 120 19 169 0 267 -25 133 -124 308 -223 394 -22
19 -54 67 -79 116 -98 196 -261 365 -467 485 -148 87 -369 160 -582 193 -121
19 -425 27 -554 14z"/>
</g>
</svg>
